<svg width="216" height="60" viewBox="0 0 216 60" fill="none" xmlns="http://www.w3.org/2000/svg">
<path d="M93.7408 24.9832C93.7408 27.0895 95.099 28.3272 97.6 28.3272C99.0014 28.3272 99.7344 28.0883 100.338 27.0895V28.1534H102.063V20.6187C102.063 18.013 100.705 17.1227 97.9665 17.1227C95.9183 17.1227 94.8188 17.6656 94.0642 18.925L95.3578 19.837C95.9614 18.8381 96.6513 18.7295 97.9449 18.7295C99.6266 18.7295 100.338 19.077 100.338 20.6187V21.8781H97.7725C95.4009 21.8781 93.7408 22.6381 93.7408 24.9832ZM100.338 23.9843C100.338 26.4163 99.1954 26.7203 97.6 26.7203C96.3279 26.7203 95.4656 26.2426 95.4656 25.0266C95.4656 23.9409 96.0692 23.3546 97.7725 23.3546H100.338V23.9843Z" fill="#FCFCFC"/>
<path d="M116.491 18.5993C115.801 17.6221 114.874 17.1227 113.408 17.1227C112.093 17.1227 111.36 17.6004 110.907 18.3604V17.2964H109.182V28.1534H110.907V21.3569C110.907 19.7284 111.899 18.7295 113.214 18.7295C114.012 18.7295 114.572 19.0118 115.025 19.6415L116.491 18.5993Z" fill="#FCFCFC"/>
<path d="M120.75 15.7547V13.1707H131.961V15.7547H127.865V28.1534H124.847V15.7547H120.75Z" fill="#FCFCFC"/>
<path d="M138.13 13.1707H141.149V28.1534H138.13V13.1707Z" fill="#FCFCFC"/>
<path d="M148.606 28.1534V13.1707H157.877V15.7547H151.624V19.4678H157.23V22.0301H151.624V28.1534H148.606Z" fill="#FCFCFC"/>
<path d="M164.161 28.1534V13.1707H173.432V15.7547H167.18V19.4678H172.785V22.0301H167.18V28.1534H164.161Z" fill="#FCFCFC"/>
<path d="M179.113 24.9832C179.113 27.0895 180.471 28.3272 182.972 28.3272C184.373 28.3272 185.106 28.0883 185.71 27.0895V28.1534H187.435V20.6187C187.435 18.013 186.076 17.1227 183.338 17.1227C181.29 17.1227 180.191 17.6656 179.436 18.925L180.73 19.837C181.333 18.8381 182.023 18.7295 183.317 18.7295C184.998 18.7295 185.71 19.077 185.71 20.6187V21.8781H183.144C180.773 21.8781 179.113 22.6381 179.113 24.9832ZM185.71 23.9843C185.71 26.4163 184.567 26.7203 182.972 26.7203C181.7 26.7203 180.837 26.2426 180.837 25.0266C180.837 23.9409 181.441 23.3546 183.144 23.3546H185.71V23.9843Z" fill="#FCFCFC"/>
<path d="M201.065 25.5478C200.612 26.4163 199.685 26.7637 198.672 26.7637C196.602 26.7637 195.74 25.2872 195.74 23.4198V21.9867C195.74 19.9455 196.818 18.6861 198.672 18.6861C199.664 18.6861 200.569 19.077 201.043 19.7718L202.402 18.8164C201.626 17.709 200.289 17.1227 198.672 17.1227C195.761 17.1227 194.015 18.9033 194.015 21.9867V23.4198C194.015 26.4163 195.718 28.3272 198.672 28.3272C200.418 28.3272 201.733 27.7626 202.402 26.5032L201.065 25.5478Z" fill="#FCFCFC"/>
<path d="M207.497 18.8598H208.877V24.8095C208.877 27.0677 209.61 28.1534 212.154 28.1534H213.081V26.5032H212.219C210.774 26.5032 210.602 25.8735 210.602 24.3752V18.8598H213.081V17.2964H210.602V14.9079H208.877V17.2964H207.497V18.8598Z" fill="#FCFCFC"/>
<path d="M97.7138 45.8625C97.4371 46.3933 96.8705 46.6056 96.2513 46.6056C94.9864 46.6056 94.4594 45.7032 94.4594 44.562V43.6862C94.4594 42.4389 95.1182 41.6692 96.2513 41.6692C96.8574 41.6692 97.4107 41.9081 97.7006 42.3327L98.5306 41.7489C98.0563 41.0721 97.2394 40.7138 96.2513 40.7138C94.4726 40.7138 93.4054 41.8019 93.4054 43.6862V44.562C93.4054 46.3933 94.4463 47.561 96.2513 47.561C97.3185 47.561 98.1222 47.216 98.5306 46.4463L97.7138 45.8625Z" fill="#FCFCFC"/>
<path d="M115.018 43.6862C115.018 41.7887 114.016 40.7138 112.277 40.7138C110.551 40.7138 109.537 41.8019 109.537 43.6862V44.562C109.537 46.3933 110.525 47.561 112.277 47.561C114.174 47.561 115.018 46.2871 115.018 44.562V43.6862ZM112.277 46.6056C111.065 46.6056 110.591 45.7032 110.591 44.562V43.6862C110.591 42.4389 111.197 41.6692 112.277 41.6692C113.357 41.6692 113.964 42.4256 113.964 43.6862V44.562C113.964 45.69 113.397 46.6056 112.277 46.6056Z" fill="#FCFCFC"/>
<path d="M126.679 47.4548H127.733V43.3147C127.733 42.3991 128.352 41.6958 129.34 41.6958C130.118 41.6958 130.842 41.9877 130.842 43.328V47.4548H131.897V43.3147C131.897 41.4569 130.908 40.7138 129.499 40.7138C128.524 40.7138 128.062 40.9659 127.733 41.4702V40.82H126.679V47.4548Z" fill="#FCFCFC"/>
<path d="M143.311 41.7754H144.155V45.4113C144.155 46.7913 144.602 47.4548 146.157 47.4548H146.724V46.4463H146.197C145.314 46.4463 145.209 46.0615 145.209 45.1459V41.7754H146.724V40.82H145.209V39.3603H144.155V40.82H143.311V41.7754Z" fill="#FCFCFC"/>
<path d="M162.79 41.6162C162.369 41.019 161.802 40.7138 160.906 40.7138C160.102 40.7138 159.655 41.0058 159.378 41.4702V40.82H158.324V47.4548H159.378V43.3014C159.378 42.3062 159.984 41.6958 160.788 41.6958C161.275 41.6958 161.618 41.8683 161.894 42.2531L162.79 41.6162Z" fill="#FCFCFC"/>
<path d="M178.937 43.6862C178.937 41.7887 177.936 40.7138 176.197 40.7138C174.471 40.7138 173.456 41.8019 173.456 43.6862V44.562C173.456 46.3933 174.445 47.561 176.197 47.561C178.094 47.561 178.937 46.2871 178.937 44.562V43.6862ZM176.197 46.6056C174.985 46.6056 174.511 45.7032 174.511 44.562V43.6862C174.511 42.4389 175.117 41.6692 176.197 41.6692C177.277 41.6692 177.883 42.4256 177.883 43.6862V44.562C177.883 45.69 177.317 46.6056 176.197 46.6056Z" fill="#FCFCFC"/>
<path d="M190.599 45.4113C190.599 46.7913 191.113 47.4548 192.773 47.4548V46.4729C191.693 46.4729 191.653 45.8625 191.653 45.1459V38.2987H190.599V45.4113Z" fill="#FCFCFC"/>
<path d="M37.71 31.2834C37.71 35.8907 33.9867 39.5955 29.3565 39.5955C24.7263 39.5955 21.003 35.8432 21.003 31.2834C21.003 26.7237 24.7263 22.9714 29.3565 22.9714C33.9867 22.9714 37.71 26.6762 37.71 31.2834ZM3.58006 27.7211C1.62296 27.7211 0 29.336 0 31.2834C0 33.2308 1.62296 34.8457 3.58006 34.8457C5.53717 34.8457 7.16013 33.2308 7.16013 31.2834C7.16013 29.336 5.53717 27.7211 3.58006 27.7211ZM12.8405 51.4223C11.6949 53.4172 12.3632 55.9345 14.368 57.0745C16.3728 58.2144 18.9027 57.5495 20.0484 55.5546C21.194 53.5597 20.5257 51.0423 18.5209 49.9024C16.516 48.7625 13.9861 49.4274 12.8405 51.4223ZM36.5644 56.742C38.3783 59.8768 42.388 60.9218 45.5384 59.1169C48.6889 57.312 49.739 53.3222 47.9251 50.1874C46.1112 47.0525 42.1016 46.0076 38.9511 47.8125C35.8484 49.6174 34.7505 53.6072 36.5644 56.742ZM55.133 39.5955C59.7632 39.5955 63.4865 35.8907 63.4865 31.2834C63.4865 26.6762 59.7632 22.9714 55.133 22.9714C50.5028 22.9714 46.7795 26.6762 46.7795 31.2834C46.7795 35.8907 50.5028 39.5955 55.133 39.5955ZM50.1209 13.5669C52.6031 9.24467 51.1233 3.73498 46.7795 1.21762C42.4357 -1.29974 36.8985 0.220177 34.3686 4.54243C31.8387 8.86469 33.3662 14.3744 37.71 16.8917C42.0538 19.4091 47.591 17.8892 50.1209 13.5669ZM21.5281 6.15734C19.9052 3.355 16.3251 2.40505 13.5565 4.01996C10.7879 5.63487 9.78551 9.19717 11.4085 11.9995C13.0314 14.8019 16.6115 15.7518 19.4278 14.1369C22.2441 12.522 23.1511 8.91219 21.5281 6.15734Z" fill="#FCFCFC"/>
</svg>
