<svg width="235" height="65" viewBox="0 0 235 65" fill="none" xmlns="http://www.w3.org/2000/svg">
<path d="M101.828 27.0651C101.828 29.3469 103.303 30.6878 106.02 30.6878C107.542 30.6878 108.338 30.429 108.994 29.3469V30.4996H110.868V22.3369C110.868 19.5141 109.392 18.5496 106.418 18.5496C104.193 18.5496 102.999 19.1377 102.179 20.5021L103.584 21.49C104.24 20.408 104.989 20.2903 106.395 20.2903C108.221 20.2903 108.994 20.6667 108.994 22.3369V23.7013H106.207C103.631 23.7013 101.828 24.5246 101.828 27.0651ZM108.994 25.983C108.994 28.6177 107.753 28.947 106.02 28.947C104.638 28.947 103.701 28.4295 103.701 27.1122C103.701 25.936 104.357 25.3009 106.207 25.3009H108.994V25.983Z" fill="#2A4B5B"/>
<path d="M126.54 20.1492C125.791 19.0906 124.784 18.5496 123.191 18.5496C121.763 18.5496 120.967 19.0671 120.475 19.8904V18.7378H118.601V30.4996H120.475V23.1367C120.475 21.3724 121.552 20.2903 122.981 20.2903C123.847 20.2903 124.456 20.5961 124.948 21.2783L126.54 20.1492Z" fill="#2A4B5B"/>
<path d="M131.167 17.0676V14.2683H143.345V17.0676H138.896V30.4996H135.617V17.0676H131.167Z" fill="#2A4B5B"/>
<path d="M150.047 14.2683H153.325V30.4996H150.047V14.2683Z" fill="#2A4B5B"/>
<path d="M161.426 30.4996V14.2683H171.497V17.0676H164.705V21.0901H170.794V23.8659H164.705V30.4996H161.426Z" fill="#2A4B5B"/>
<path d="M178.323 30.4996V14.2683H188.394V17.0676H181.602V21.0901H187.691V23.8659H181.602V30.4996H178.323Z" fill="#2A4B5B"/>
<path d="M194.564 27.0651C194.564 29.3469 196.04 30.6878 198.757 30.6878C200.279 30.6878 201.075 30.429 201.731 29.3469V30.4996H203.604V22.3369C203.604 19.5141 202.129 18.5496 199.155 18.5496C196.93 18.5496 195.735 19.1377 194.916 20.5021L196.321 21.49C196.977 20.408 197.726 20.2903 199.131 20.2903C200.958 20.2903 201.731 20.6667 201.731 22.3369V23.7013H198.944C196.368 23.7013 194.564 24.5246 194.564 27.0651ZM201.731 25.983C201.731 28.6177 200.49 28.947 198.757 28.947C197.375 28.947 196.438 28.4295 196.438 27.1122C196.438 25.936 197.094 25.3009 198.944 25.3009H201.731V25.983Z" fill="#2A4B5B"/>
<path d="M218.411 27.6767C217.919 28.6177 216.912 28.9941 215.811 28.9941C213.563 28.9941 212.626 27.3945 212.626 25.3714V23.8189C212.626 21.6077 213.797 20.2433 215.811 20.2433C216.888 20.2433 217.872 20.6667 218.387 21.4195L219.863 20.3844C219.02 19.1847 217.568 18.5496 215.811 18.5496C212.649 18.5496 210.752 20.4785 210.752 23.8189V25.3714C210.752 28.6177 212.603 30.6878 215.811 30.6878C217.708 30.6878 219.137 30.0761 219.863 28.7118L218.411 27.6767Z" fill="#2A4B5B"/>
<path d="M225.398 20.4315H226.897V26.8769C226.897 29.3234 227.693 30.4996 230.456 30.4996H231.463V28.7118H230.527C228.957 28.7118 228.77 28.0296 228.77 26.4065V20.4315H231.463V18.7378H228.77V16.1502H226.897V18.7378H225.398V20.4315Z" fill="#2A4B5B"/>
<path d="M106.143 49.6843C105.843 50.2594 105.227 50.4894 104.555 50.4894C103.181 50.4894 102.608 49.5118 102.608 48.2755V47.3268C102.608 45.9755 103.324 45.1417 104.555 45.1417C105.213 45.1417 105.814 45.4004 106.129 45.8605L107.031 45.2279C106.516 44.4948 105.628 44.1066 104.555 44.1066C102.623 44.1066 101.463 45.2854 101.463 47.3268V48.2755C101.463 50.2594 102.594 51.5244 104.555 51.5244C105.714 51.5244 106.587 51.1507 107.031 50.3169L106.143 49.6843Z" fill="#2A4B5B"/>
<path d="M124.94 47.3268C124.94 45.2711 123.852 44.1066 121.963 44.1066C120.088 44.1066 118.986 45.2854 118.986 47.3268V48.2755C118.986 50.2594 120.06 51.5244 121.963 51.5244C124.024 51.5244 124.94 50.1444 124.94 48.2755V47.3268ZM121.963 50.4894C120.646 50.4894 120.131 49.5118 120.131 48.2755V47.3268C120.131 45.9755 120.789 45.1417 121.963 45.1417C123.137 45.1417 123.795 45.9611 123.795 47.3268V48.2755C123.795 49.4975 123.18 50.4894 121.963 50.4894Z" fill="#2A4B5B"/>
<path d="M137.608 51.4094H138.752V46.9242C138.752 45.9323 139.425 45.1704 140.499 45.1704C141.343 45.1704 142.13 45.4867 142.13 46.9386V51.4094H143.275V46.9242C143.275 44.9117 142.202 44.1066 140.67 44.1066C139.611 44.1066 139.11 44.3798 138.752 44.926V44.2217H137.608V51.4094Z" fill="#2A4B5B"/>
<path d="M155.675 45.2567H156.591V49.1956C156.591 50.6906 157.077 51.4094 158.766 51.4094H159.381V50.3169H158.809C157.85 50.3169 157.736 49.9 157.736 48.9081V45.2567H159.381V44.2217H157.736V42.6403H156.591V44.2217H155.675V45.2567Z" fill="#2A4B5B"/>
<path d="M176.834 45.0842C176.376 44.4373 175.761 44.1066 174.787 44.1066C173.914 44.1066 173.428 44.4229 173.127 44.926V44.2217H171.982V51.4094H173.127V46.9099C173.127 45.8317 173.786 45.1704 174.659 45.1704C175.188 45.1704 175.56 45.3573 175.861 45.7742L176.834 45.0842Z" fill="#2A4B5B"/>
<path d="M194.374 47.3268C194.374 45.2711 193.287 44.1066 191.397 44.1066C189.522 44.1066 188.42 45.2854 188.42 47.3268V48.2755C188.42 50.2594 189.494 51.5244 191.397 51.5244C193.458 51.5244 194.374 50.1444 194.374 48.2755V47.3268ZM191.397 50.4894C190.081 50.4894 189.565 49.5118 189.565 48.2755V47.3268C189.565 45.9755 190.224 45.1417 191.397 45.1417C192.571 45.1417 193.229 45.9611 193.229 47.3268V48.2755C193.229 49.4975 192.614 50.4894 191.397 50.4894Z" fill="#2A4B5B"/>
<path d="M207.042 49.1956C207.042 50.6906 207.6 51.4094 209.403 51.4094V50.3456C208.23 50.3456 208.187 49.6843 208.187 48.9081V41.4903H207.042V49.1956Z" fill="#2A4B5B"/>
<path d="M40.9632 33.8904C40.9632 38.8816 36.9188 42.8951 31.8891 42.8951C26.8594 42.8951 22.815 38.8301 22.815 33.8904C22.815 28.9507 26.8594 24.8857 31.8891 24.8857C36.9188 24.8857 40.9632 28.8992 40.9632 33.8904ZM3.88891 30.0312C1.76297 30.0312 0 31.7807 0 33.8904C0 36.0001 1.76297 37.7495 3.88891 37.7495C6.01485 37.7495 7.77783 36.0001 7.77783 33.8904C7.77783 31.7807 6.01485 30.0312 3.88891 30.0312ZM13.9482 55.7075C12.7038 57.8686 13.4297 60.5958 15.6075 61.8307C17.7853 63.0656 20.5335 62.3452 21.7779 60.1841C23.0224 58.023 22.2964 55.2959 20.1187 54.0609C17.9409 52.826 15.1927 53.5464 13.9482 55.7075ZM39.7188 61.4705C41.6892 64.8666 46.0447 65.9986 49.467 64.0433C52.8892 62.088 54.03 57.7657 52.0596 54.3697C50.0892 50.9736 45.7336 49.8416 42.3114 51.7969C38.941 53.7522 37.7484 58.0744 39.7188 61.4705ZM59.8893 42.8951C64.9189 42.8951 68.9634 38.8816 68.9634 33.8904C68.9634 28.8992 64.9189 24.8857 59.8893 24.8857C54.8596 24.8857 50.8151 28.8992 50.8151 33.8904C50.8151 38.8816 54.8596 42.8951 59.8893 42.8951ZM54.4448 14.6975C57.1411 10.0151 55.5337 4.04623 50.8151 1.31909C46.0966 -1.40805 40.0817 0.238525 37.3336 4.92097C34.5854 9.60342 36.2447 15.5722 40.9632 18.2994C45.6818 21.0265 51.6966 19.38 54.4448 14.6975ZM23.3853 6.67046C21.6224 3.63458 17.7334 2.60548 14.726 4.35496C11.7186 6.10445 10.6297 9.9636 12.3927 12.9995C14.1556 16.0353 18.0446 17.0645 21.1038 15.315C24.1631 13.5655 25.1483 9.65487 23.3853 6.67046Z" fill="#2A4B5B"/>
</svg>
