<svg width="64" height="60" viewBox="0 0 64 60" fill="none" xmlns="http://www.w3.org/2000/svg">
<path d="M37.71 31.2834C37.71 35.8907 33.9867 39.5955 29.3565 39.5955C24.7263 39.5955 21.003 35.8432 21.003 31.2834C21.003 26.7237 24.7263 22.9714 29.3565 22.9714C33.9867 22.9714 37.71 26.6762 37.71 31.2834ZM3.58006 27.7211C1.62296 27.7211 0 29.336 0 31.2834C0 33.2308 1.62296 34.8457 3.58006 34.8457C5.53717 34.8457 7.16013 33.2308 7.16013 31.2834C7.16013 29.336 5.53717 27.7211 3.58006 27.7211ZM12.8405 51.4223C11.6949 53.4172 12.3632 55.9345 14.368 57.0745C16.3728 58.2144 18.9027 57.5495 20.0484 55.5546C21.194 53.5597 20.5257 51.0423 18.5209 49.9024C16.516 48.7625 13.9861 49.4274 12.8405 51.4223ZM36.5644 56.742C38.3783 59.8768 42.388 60.9218 45.5384 59.1169C48.6889 57.312 49.739 53.3222 47.9251 50.1874C46.1112 47.0525 42.1016 46.0076 38.9511 47.8125C35.8484 49.6174 34.7505 53.6072 36.5644 56.742ZM55.133 39.5955C59.7632 39.5955 63.4865 35.8907 63.4865 31.2834C63.4865 26.6762 59.7632 22.9714 55.133 22.9714C50.5028 22.9714 46.7795 26.6762 46.7795 31.2834C46.7795 35.8907 50.5028 39.5955 55.133 39.5955ZM50.1209 13.5669C52.6031 9.24467 51.1233 3.73498 46.7795 1.21762C42.4357 -1.29974 36.8985 0.220177 34.3686 4.54243C31.8387 8.86469 33.3662 14.3744 37.71 16.8917C42.0538 19.4091 47.591 17.8892 50.1209 13.5669ZM21.5281 6.15734C19.9052 3.355 16.3251 2.40505 13.5565 4.01996C10.7879 5.63487 9.78551 9.19717 11.4085 11.9995C13.0314 14.8019 16.6115 15.7518 19.4278 14.1369C22.2441 12.522 23.1511 8.91219 21.5281 6.15734Z" fill="#FCFCFC"/>
</svg>
