<svg width="296" height="82" viewBox="0 0 296 82" fill="none" xmlns="http://www.w3.org/2000/svg">
<path d="M128.46 34.1437C128.46 37.0222 130.321 38.7138 133.748 38.7138C135.669 38.7138 136.673 38.3873 137.5 37.0222V38.4764H139.864V28.1788C139.864 24.6177 138.003 23.401 134.25 23.401C131.444 23.401 129.937 24.1429 128.903 25.8641L130.675 27.1105C131.503 25.7454 132.448 25.597 134.221 25.597C136.525 25.597 137.5 26.0718 137.5 28.1788V29.9H133.984C130.735 29.9 128.46 30.9387 128.46 34.1437ZM137.5 32.7786C137.5 36.1023 135.934 36.5177 133.748 36.5177C132.005 36.5177 130.823 35.8649 130.823 34.203C130.823 32.7192 131.65 31.918 133.984 31.918H137.5V32.7786Z" fill="#2e2e2e"/>
<path d="M159.636 25.419C158.69 24.0836 157.42 23.401 155.411 23.401C153.609 23.401 152.604 24.0539 151.984 25.0925V23.6384H149.62V38.4764H151.984V29.1878C151.984 26.9621 153.343 25.597 155.145 25.597C156.238 25.597 157.006 25.9828 157.627 26.8434L159.636 25.419Z" fill="#2e2e2e"/>
<path d="M165.472 21.5314V18H180.836V21.5314H175.222V38.4764H171.086V21.5314H165.472Z" fill="#2e2e2e"/>
<path d="M189.29 18H193.426V38.4764H189.29V18Z" fill="#2e2e2e"/>
<path d="M203.645 38.4764V18H216.35V21.5314H207.782V26.606H215.463V30.1078H207.782V38.4764H203.645Z" fill="#2e2e2e"/>
<path d="M224.962 38.4764V18H237.666V21.5314H229.098V26.606H236.78V30.1078H229.098V38.4764H224.962Z" fill="#2e2e2e"/>
<path d="M245.451 34.1437C245.451 37.0222 247.312 38.7138 250.739 38.7138C252.66 38.7138 253.664 38.3873 254.491 37.0222V38.4764H256.855V28.1788C256.855 24.6177 254.994 23.401 251.241 23.401C248.435 23.401 246.928 24.1429 245.894 25.8641L247.666 27.1105C248.494 25.7454 249.439 25.597 251.212 25.597C253.516 25.597 254.491 26.0718 254.491 28.1788V29.9H250.975C247.726 29.9 245.451 30.9387 245.451 34.1437ZM254.491 32.7786C254.491 36.1023 252.925 36.5177 250.739 36.5177C248.996 36.5177 247.814 35.8649 247.814 34.203C247.814 32.7192 248.641 31.918 250.975 31.918H254.491V32.7786Z" fill="#2e2e2e"/>
<path d="M275.534 34.9153C274.913 36.1023 273.643 36.5771 272.254 36.5771C269.418 36.5771 268.236 34.5591 268.236 32.007V30.0484C268.236 27.2589 269.713 25.5377 272.254 25.5377C273.613 25.5377 274.854 26.0718 275.504 27.0215L277.365 25.7157C276.302 24.2023 274.47 23.401 272.254 23.401C268.265 23.401 265.872 25.8344 265.872 30.0484V32.007C265.872 36.1023 268.206 38.7138 272.254 38.7138C274.647 38.7138 276.449 37.9422 277.365 36.221L275.534 34.9153Z" fill="#2e2e2e"/>
<path d="M284.348 25.7751H286.239V33.9063C286.239 36.9926 287.243 38.4764 290.73 38.4764H292V36.221H290.818C288.839 36.221 288.602 35.3604 288.602 33.3128V25.7751H292V23.6384H288.602V20.3741H286.239V23.6384H284.348V25.7751Z" fill="#2e2e2e"/>
<path d="M133.904 62.6787C133.525 63.4041 132.749 63.6943 131.9 63.6943C130.167 63.6943 129.444 62.4611 129.444 60.9014V59.7045C129.444 57.9998 130.347 56.9479 131.9 56.9479C132.73 56.9479 133.489 57.2744 133.886 57.8547L135.023 57.0568C134.373 56.1319 133.254 55.6422 131.9 55.6422C129.462 55.6422 128 57.1293 128 59.7045V60.9014C128 63.4041 129.426 65 131.9 65C133.362 65 134.464 64.5285 135.023 63.4766L133.904 62.6787Z" fill="#2e2e2e"/>
<path d="M157.617 59.7045C157.617 57.1112 156.244 55.6422 153.861 55.6422C151.496 55.6422 150.106 57.1293 150.106 59.7045V60.9014C150.106 63.4041 151.46 65 153.861 65C156.461 65 157.617 63.259 157.617 60.9014V59.7045ZM153.861 63.6943C152.2 63.6943 151.55 62.4611 151.55 60.9014V59.7045C151.55 57.9998 152.381 56.9479 153.861 56.9479C155.342 56.9479 156.172 57.9817 156.172 59.7045V60.9014C156.172 62.4429 155.396 63.6943 153.861 63.6943Z" fill="#2e2e2e"/>
<path d="M173.597 64.8549H175.042V59.1967C175.042 57.9454 175.89 56.9842 177.244 56.9842C178.31 56.9842 179.303 57.3832 179.303 59.2148V64.8549H180.747V59.1967C180.747 56.6578 179.393 55.6422 177.461 55.6422C176.125 55.6422 175.493 55.9868 175.042 56.6759V55.7873H173.597V64.8549Z" fill="#2e2e2e"/>
<path d="M196.39 57.093H197.545V62.0621C197.545 63.9482 198.159 64.8549 200.289 64.8549H201.066V63.4766H200.344C199.134 63.4766 198.99 62.9507 198.99 61.6994V57.093H201.066V55.7873H198.99V53.7924H197.545V55.7873H196.39V57.093Z" fill="#2e2e2e"/>
<path d="M223.083 56.8754C222.505 56.0593 221.729 55.6422 220.501 55.6422C219.4 55.6422 218.786 56.0412 218.407 56.6759V55.7873H216.962V64.8549H218.407V59.1786C218.407 57.8184 219.237 56.9842 220.339 56.9842C221.007 56.9842 221.476 57.22 221.855 57.7459L223.083 56.8754Z" fill="#2e2e2e"/>
<path d="M245.211 59.7045C245.211 57.1112 243.838 55.6422 241.455 55.6422C239.09 55.6422 237.7 57.1293 237.7 59.7045V60.9014C237.7 63.4041 239.054 65 241.455 65C244.055 65 245.211 63.259 245.211 60.9014V59.7045ZM241.455 63.6943C239.794 63.6943 239.144 62.4611 239.144 60.9014V59.7045C239.144 57.9998 239.975 56.9479 241.455 56.9479C242.936 56.9479 243.766 57.9817 243.766 59.7045V60.9014C243.766 62.4429 242.99 63.6943 241.455 63.6943Z" fill="#2e2e2e"/>
<path d="M261.191 62.0621C261.191 63.9482 261.895 64.8549 264.17 64.8549V63.5129C262.69 63.5129 262.636 62.6787 262.636 61.6994V52.3416H261.191V62.0621Z" fill="#2e2e2e"/>
<path d="M51.6767 42.754C51.6767 49.0506 46.5744 54.1138 40.2293 54.1138C33.8842 54.1138 28.782 48.9857 28.782 42.754C28.782 36.5224 33.8842 31.3942 40.2293 31.3942C46.5744 31.3942 51.6767 36.4575 51.6767 42.754ZM4.90601 37.8855C2.22406 37.8855 0 40.0926 0 42.754C0 45.4155 2.22406 47.6225 4.90601 47.6225C7.58797 47.6225 9.81203 45.4155 9.81203 42.754C9.81203 40.0926 7.58797 37.8855 4.90601 37.8855ZM17.5962 70.2771C16.0263 73.0035 16.9421 76.4439 19.6895 78.0018C22.4368 79.5597 25.9038 78.6509 27.4737 75.9246C29.0436 73.1982 28.1278 69.7578 25.3805 68.1999C22.6331 66.642 19.1662 67.5508 17.5962 70.2771ZM50.1068 77.5474C52.5925 81.8317 58.0872 83.2598 62.4045 80.7931C66.7218 78.3264 68.1609 72.8737 65.6752 68.5894C63.1895 64.3052 57.6947 62.8771 53.3774 65.3438C49.1256 67.8105 47.6211 73.2632 50.1068 77.5474ZM75.5526 54.1138C81.8977 54.1138 87 49.0506 87 42.754C87 36.4575 81.8977 31.3942 75.5526 31.3942C69.2075 31.3942 64.1053 36.4575 64.1053 42.754C64.1053 49.0506 69.2075 54.1138 75.5526 54.1138ZM68.6842 18.5415C72.0857 12.6344 70.0579 5.10447 64.1053 1.66408C58.1526 -1.77631 50.5647 0.300909 47.0977 6.20799C43.6308 12.1151 45.7241 19.645 51.6767 23.0854C57.6293 26.5258 65.2173 24.4486 68.6842 18.5415ZM29.5015 8.41504C27.2774 4.58517 22.3714 3.28691 18.5774 5.49395C14.7835 7.70099 13.4098 12.5695 15.6338 16.3993C17.8579 20.2292 22.7639 21.5275 26.6233 19.3204C30.4827 17.1134 31.7256 12.18 29.5015 8.41504Z" fill="#2e2e2e"/>
</svg>
