<svg width="87" height="82" viewBox="0 0 87 82" fill="none" xmlns="http://www.w3.org/2000/svg">
<path d="M51.6767 42.754C51.6767 49.0506 46.5744 54.1138 40.2293 54.1138C33.8842 54.1138 28.782 48.9857 28.782 42.754C28.782 36.5224 33.8842 31.3942 40.2293 31.3942C46.5744 31.3942 51.6767 36.4575 51.6767 42.754ZM4.90602 37.8855C2.22406 37.8855 0 40.0926 0 42.754C0 45.4155 2.22406 47.6225 4.90602 47.6225C7.58797 47.6225 9.81203 45.4155 9.81203 42.754C9.81203 40.0926 7.58797 37.8855 4.90602 37.8855ZM17.5962 70.2771C16.0263 73.0035 16.9421 76.4439 19.6895 78.0018C22.4368 79.5597 25.9038 78.6509 27.4737 75.9246C29.0436 73.1982 28.1278 69.7578 25.3805 68.1999C22.6331 66.642 19.1662 67.5508 17.5962 70.2771ZM50.1068 77.5474C52.5925 81.8317 58.0872 83.2598 62.4045 80.7931C66.7218 78.3264 68.1609 72.8737 65.6752 68.5894C63.1895 64.3052 57.6947 62.8771 53.3774 65.3438C49.1256 67.8105 47.6211 73.2631 50.1068 77.5474ZM75.5526 54.1138C81.8977 54.1138 87 49.0506 87 42.754C87 36.4575 81.8977 31.3942 75.5526 31.3942C69.2075 31.3942 64.1053 36.4575 64.1053 42.754C64.1053 49.0506 69.2075 54.1138 75.5526 54.1138ZM68.6842 18.5415C72.0857 12.6344 70.0579 5.10447 64.1053 1.66408C58.1526 -1.77631 50.5647 0.300909 47.0977 6.20799C43.6308 12.1151 45.7241 19.645 51.6767 23.0854C57.6293 26.5258 65.2173 24.4486 68.6842 18.5415ZM29.5015 8.41504C27.2774 4.58517 22.3714 3.28691 18.5774 5.49395C14.7835 7.70099 13.4098 12.5695 15.6338 16.3993C17.8579 20.2292 22.7639 21.5275 26.6233 19.3204C30.4827 17.1134 31.7256 12.18 29.5015 8.41504Z" fill="#F69947"/>
</svg>
